<?xml version="1.0" standalone="no"?>
<!DOCTYPE svg PUBLIC "-//W3C//DTD SVG 20010904//EN"
 "http://www.w3.org/TR/2001/REC-SVG-20010904/DTD/svg10.dtd">
<svg version="1.0" xmlns="http://www.w3.org/2000/svg"
 width="160.000000pt" height="160.000000pt" viewBox="0 0 160.000000 160.000000"
 preserveAspectRatio="xMidYMid meet">

<g transform="translate(0.000000,160.000000) scale(0.100000,-0.100000)"
fill="#000000" stroke="none">
<path d="M822 1509 c-133 -13 -191 -52 -237 -162 -15 -35 -14 -41 5 -84 11
-25 20 -52 20 -61 0 -21 -77 -110 -195 -224 -54 -53 -97 -100 -93 -103 3 -4
39 -19 79 -33 40 -15 74 -32 76 -38 2 -6 -8 -26 -23 -43 -24 -29 -25 -33 -11
-49 16 -18 12 -67 -12 -125 -19 -47 -13 -70 24 -100 41 -33 43 -50 15 -139
-36 -114 -20 -174 59 -219 36 -20 38 -24 23 -35 -14 -10 -8 -13 38 -18 137
-14 224 -16 340 -7 108 8 134 14 187 40 34 17 67 40 74 52 17 33 3 396 -17
426 -18 28 -18 83 0 308 8 99 18 239 22 310 15 298 -33 337 -374 304z m197
-35 c13 -9 33 -38 45 -63 20 -43 21 -61 19 -211 -3 -170 -5 -206 -15 -215 -6
-6 6 -82 17 -109 7 -17 5 -18 -21 -13 -16 3 -37 9 -48 13 -16 6 -17 4 -11 -16
4 -13 16 -33 27 -44 16 -18 19 -34 17 -106 -2 -81 9 -143 34 -202 7 -16 14
-28 17 -28 7 0 4 -193 -3 -234 -2 -16 -12 -35 -21 -41 -9 -7 -16 -17 -16 -23
0 -19 -101 -34 -238 -37 -197 -3 -278 21 -302 92 -10 27 -7 39 19 92 17 33 41
65 53 72 27 13 158 149 158 162 0 5 -10 7 -22 4 -79 -20 -211 -38 -231 -33
-29 7 -41 43 -28 78 16 42 65 87 115 105 70 26 71 43 3 43 -112 0 -116 24 -9
65 60 24 77 34 77 50 0 19 -6 20 -93 17 -52 -2 -104 -1 -118 2 -22 6 -23 8
-11 35 6 16 42 61 78 100 37 38 94 115 129 170 70 115 89 125 134 69 15 -18
31 -39 37 -46 25 -30 184 20 177 56 -2 9 -23 30 -46 47 -42 29 -49 30 -163 33
-65 2 -119 8 -119 13 0 19 57 70 105 93 41 21 66 25 140 25 68 1 96 -3 114
-15z"/>
</g>
</svg>
